<mxfile host="app.diagrams.net" modified="2024-05-22T15:45:14.469Z" agent="Mozilla/5.0 (Windows NT 10.0; Win64; x64) AppleWebKit/537.36 (KHTML, like Gecko) Chrome/124.0.0.0 Safari/537.36" etag="Wxjj9z5W8nhcmCNqrlfn" version="24.4.4" type="device">
  <diagram name="Page-1" id="G3qBza_uTBcHpbvVMIpz">
    <mxGraphModel dx="778" dy="459" grid="1" gridSize="10" guides="1" tooltips="1" connect="1" arrows="1" fold="1" page="1" pageScale="1" pageWidth="827" pageHeight="1169" math="0" shadow="0">
      <root>
        <mxCell id="0" />
        <mxCell id="1" parent="0" />
        <mxCell id="YAd4bqjU5zFwk5RfxE6E-99" value="" style="rounded=0;whiteSpace=wrap;html=1;" vertex="1" parent="1">
          <mxGeometry x="190" y="90" width="530" height="590" as="geometry" />
        </mxCell>
        <mxCell id="YAd4bqjU5zFwk5RfxE6E-1" value="JOUEUR 1/2" style="shape=umlActor;verticalLabelPosition=bottom;verticalAlign=top;html=1;outlineConnect=0;" vertex="1" parent="1">
          <mxGeometry x="130" y="280" width="30" height="60" as="geometry" />
        </mxCell>
        <mxCell id="YAd4bqjU5zFwk5RfxE6E-2" value="Diagramme des cas d&#39;utilisations" style="text;html=1;align=center;verticalAlign=middle;whiteSpace=wrap;rounded=0;fontSize=16;" vertex="1" parent="1">
          <mxGeometry x="390" y="30" width="170" height="30" as="geometry" />
        </mxCell>
        <mxCell id="YAd4bqjU5zFwk5RfxE6E-7" value="&lt;font style=&quot;font-size: 8px;&quot;&gt;Touché coulé TP-11&lt;/font&gt;" style="text;html=1;align=center;verticalAlign=middle;whiteSpace=wrap;rounded=0;fontSize=16;" vertex="1" parent="1">
          <mxGeometry x="630" y="90" width="140" height="35" as="geometry" />
        </mxCell>
        <mxCell id="YAd4bqjU5zFwk5RfxE6E-8" value="Saisie clavier" style="ellipse;whiteSpace=wrap;html=1;" vertex="1" parent="1">
          <mxGeometry x="390" y="220" width="166" height="30" as="geometry" />
        </mxCell>
        <mxCell id="YAd4bqjU5zFwk5RfxE6E-10" value="Affichage écran" style="ellipse;whiteSpace=wrap;html=1;" vertex="1" parent="1">
          <mxGeometry x="390" y="280" width="166" height="30" as="geometry" />
        </mxCell>
        <mxCell id="YAd4bqjU5zFwk5RfxE6E-11" value="" style="endArrow=classic;html=1;rounded=0;fontSize=12;startSize=8;endSize=8;curved=1;entryX=0;entryY=0.5;entryDx=0;entryDy=0;exitX=1;exitY=0.3333333333333333;exitDx=0;exitDy=0;exitPerimeter=0;" edge="1" parent="1" source="YAd4bqjU5zFwk5RfxE6E-1" target="YAd4bqjU5zFwk5RfxE6E-8">
          <mxGeometry width="50" height="50" relative="1" as="geometry">
            <mxPoint x="220" y="360" as="sourcePoint" />
            <mxPoint x="280" y="210" as="targetPoint" />
          </mxGeometry>
        </mxCell>
        <mxCell id="YAd4bqjU5zFwk5RfxE6E-13" value="" style="endArrow=classic;html=1;rounded=0;fontSize=12;startSize=8;endSize=8;curved=1;entryX=1;entryY=0.3333333333333333;entryDx=0;entryDy=0;exitX=1;exitY=0.3333333333333333;exitDx=0;exitDy=0;exitPerimeter=0;entryPerimeter=0;" edge="1" parent="1" target="YAd4bqjU5zFwk5RfxE6E-1">
          <mxGeometry width="50" height="50" relative="1" as="geometry">
            <mxPoint x="390.0000000000002" y="293.9999999999999" as="sourcePoint" />
            <mxPoint x="220" y="359" as="targetPoint" />
          </mxGeometry>
        </mxCell>
        <mxCell id="YAd4bqjU5zFwk5RfxE6E-17" value="Coordonnées de tirs" style="ellipse;whiteSpace=wrap;html=1;" vertex="1" parent="1">
          <mxGeometry x="520" y="160" width="166" height="30" as="geometry" />
        </mxCell>
        <mxCell id="YAd4bqjU5zFwk5RfxE6E-18" value="Coordonnées de placement" style="ellipse;whiteSpace=wrap;html=1;" vertex="1" parent="1">
          <mxGeometry x="260" y="160" width="166" height="30" as="geometry" />
        </mxCell>
        <mxCell id="YAd4bqjU5zFwk5RfxE6E-19" value="Confirmation changement tour" style="ellipse;whiteSpace=wrap;html=1;" vertex="1" parent="1">
          <mxGeometry x="378" y="125" width="190" height="30" as="geometry" />
        </mxCell>
        <mxCell id="YAd4bqjU5zFwk5RfxE6E-21" value="Plateaux" style="ellipse;whiteSpace=wrap;html=1;" vertex="1" parent="1">
          <mxGeometry x="346.12" y="487.5" width="86" height="30" as="geometry" />
        </mxCell>
        <mxCell id="YAd4bqjU5zFwk5RfxE6E-23" value="Statut partie" style="ellipse;whiteSpace=wrap;html=1;" vertex="1" parent="1">
          <mxGeometry x="475" y="415" width="110" height="30" as="geometry" />
        </mxCell>
        <mxCell id="YAd4bqjU5zFwk5RfxE6E-24" value="Gagné" style="ellipse;whiteSpace=wrap;html=1;" vertex="1" parent="1">
          <mxGeometry x="460" y="477.5" width="66" height="30" as="geometry" />
        </mxCell>
        <mxCell id="YAd4bqjU5zFwk5RfxE6E-25" value="Perdue" style="ellipse;whiteSpace=wrap;html=1;" vertex="1" parent="1">
          <mxGeometry x="536" y="477.5" width="64" height="30" as="geometry" />
        </mxCell>
        <mxCell id="YAd4bqjU5zFwk5RfxE6E-26" value="" style="endArrow=classic;html=1;rounded=0;fontSize=12;startSize=8;endSize=8;curved=1;dashed=1;entryX=0.5;entryY=1;entryDx=0;entryDy=0;exitX=0.5;exitY=0;exitDx=0;exitDy=0;" edge="1" parent="1" source="YAd4bqjU5zFwk5RfxE6E-21" target="YAd4bqjU5zFwk5RfxE6E-85">
          <mxGeometry width="50" height="50" relative="1" as="geometry">
            <mxPoint x="430" y="500" as="sourcePoint" />
            <mxPoint x="590" y="390" as="targetPoint" />
          </mxGeometry>
        </mxCell>
        <mxCell id="YAd4bqjU5zFwk5RfxE6E-43" value="include" style="edgeLabel;html=1;align=center;verticalAlign=middle;resizable=0;points=[];fontSize=12;" vertex="1" connectable="0" parent="YAd4bqjU5zFwk5RfxE6E-26">
          <mxGeometry x="-0.0981" y="1" relative="1" as="geometry">
            <mxPoint as="offset" />
          </mxGeometry>
        </mxCell>
        <mxCell id="YAd4bqjU5zFwk5RfxE6E-33" value="" style="endArrow=classic;html=1;rounded=0;fontSize=12;startSize=8;endSize=8;curved=1;exitX=0.5;exitY=1;exitDx=0;exitDy=0;dashed=1;entryX=0.5;entryY=0;entryDx=0;entryDy=0;" edge="1" parent="1" source="YAd4bqjU5zFwk5RfxE6E-75" target="YAd4bqjU5zFwk5RfxE6E-23">
          <mxGeometry width="50" height="50" relative="1" as="geometry">
            <mxPoint x="530.65" y="342.28" as="sourcePoint" />
            <mxPoint x="460.00200000000007" y="377.7099999999999" as="targetPoint" />
          </mxGeometry>
        </mxCell>
        <mxCell id="YAd4bqjU5zFwk5RfxE6E-34" value="" style="endArrow=classic;html=1;rounded=0;fontSize=12;startSize=8;endSize=8;curved=1;exitX=1;exitY=0.5;exitDx=0;exitDy=0;dashed=1;entryX=0.5;entryY=0;entryDx=0;entryDy=0;" edge="1" parent="1" source="YAd4bqjU5zFwk5RfxE6E-18" target="YAd4bqjU5zFwk5RfxE6E-8">
          <mxGeometry width="50" height="50" relative="1" as="geometry">
            <mxPoint x="382" y="209" as="sourcePoint" />
            <mxPoint x="450" y="170" as="targetPoint" />
          </mxGeometry>
        </mxCell>
        <mxCell id="YAd4bqjU5zFwk5RfxE6E-35" value="" style="endArrow=classic;html=1;rounded=0;fontSize=12;startSize=8;endSize=8;curved=1;exitX=0.5;exitY=1;exitDx=0;exitDy=0;dashed=1;entryX=0.5;entryY=0;entryDx=0;entryDy=0;" edge="1" parent="1" source="YAd4bqjU5zFwk5RfxE6E-19" target="YAd4bqjU5zFwk5RfxE6E-8">
          <mxGeometry width="50" height="50" relative="1" as="geometry">
            <mxPoint x="452" y="190" as="sourcePoint" />
            <mxPoint x="520" y="151" as="targetPoint" />
          </mxGeometry>
        </mxCell>
        <mxCell id="YAd4bqjU5zFwk5RfxE6E-36" value="" style="endArrow=classic;html=1;rounded=0;fontSize=12;startSize=8;endSize=8;curved=1;exitX=0;exitY=0.5;exitDx=0;exitDy=0;dashed=1;entryX=0.5;entryY=0;entryDx=0;entryDy=0;" edge="1" parent="1" source="YAd4bqjU5zFwk5RfxE6E-17" target="YAd4bqjU5zFwk5RfxE6E-8">
          <mxGeometry width="50" height="50" relative="1" as="geometry">
            <mxPoint x="460" y="199" as="sourcePoint" />
            <mxPoint x="528" y="160" as="targetPoint" />
          </mxGeometry>
        </mxCell>
        <mxCell id="YAd4bqjU5zFwk5RfxE6E-51" value="" style="endArrow=classic;html=1;rounded=0;fontSize=12;startSize=8;endSize=8;curved=1;exitX=0.5;exitY=0;exitDx=0;exitDy=0;dashed=1;entryX=0.5;entryY=1;entryDx=0;entryDy=0;" edge="1" parent="1" source="YAd4bqjU5zFwk5RfxE6E-24" target="YAd4bqjU5zFwk5RfxE6E-23">
          <mxGeometry width="50" height="50" relative="1" as="geometry">
            <mxPoint x="586.71" y="467.5" as="sourcePoint" />
            <mxPoint x="586.71" y="387.5" as="targetPoint" />
          </mxGeometry>
        </mxCell>
        <mxCell id="YAd4bqjU5zFwk5RfxE6E-52" value="extend" style="edgeLabel;html=1;align=center;verticalAlign=middle;resizable=0;points=[];fontSize=12;" vertex="1" connectable="0" parent="YAd4bqjU5zFwk5RfxE6E-51">
          <mxGeometry x="-0.0182" y="1" relative="1" as="geometry">
            <mxPoint as="offset" />
          </mxGeometry>
        </mxCell>
        <mxCell id="YAd4bqjU5zFwk5RfxE6E-53" value="" style="endArrow=classic;html=1;rounded=0;fontSize=12;startSize=8;endSize=8;curved=1;exitX=0.5;exitY=0;exitDx=0;exitDy=0;dashed=1;entryX=0.5;entryY=1;entryDx=0;entryDy=0;" edge="1" parent="1" source="YAd4bqjU5zFwk5RfxE6E-25" target="YAd4bqjU5zFwk5RfxE6E-23">
          <mxGeometry width="50" height="50" relative="1" as="geometry">
            <mxPoint x="670" y="417.5" as="sourcePoint" />
            <mxPoint x="590" y="397.5" as="targetPoint" />
          </mxGeometry>
        </mxCell>
        <mxCell id="YAd4bqjU5zFwk5RfxE6E-54" value="extend" style="edgeLabel;html=1;align=center;verticalAlign=middle;resizable=0;points=[];fontSize=12;" vertex="1" connectable="0" parent="YAd4bqjU5zFwk5RfxE6E-53">
          <mxGeometry x="-0.0182" y="1" relative="1" as="geometry">
            <mxPoint as="offset" />
          </mxGeometry>
        </mxCell>
        <mxCell id="YAd4bqjU5zFwk5RfxE6E-57" value="Plateau de flotte" style="ellipse;whiteSpace=wrap;html=1;" vertex="1" parent="1">
          <mxGeometry x="275.87" y="550" width="106.5" height="30" as="geometry" />
        </mxCell>
        <mxCell id="YAd4bqjU5zFwk5RfxE6E-64" value="Plateau de tirs" style="ellipse;whiteSpace=wrap;html=1;" vertex="1" parent="1">
          <mxGeometry x="395.87" y="550" width="106.5" height="30" as="geometry" />
        </mxCell>
        <mxCell id="YAd4bqjU5zFwk5RfxE6E-66" value="" style="endArrow=classic;html=1;rounded=0;fontSize=12;startSize=8;endSize=8;curved=1;exitX=0.5;exitY=0;exitDx=0;exitDy=0;dashed=1;entryX=0.5;entryY=1;entryDx=0;entryDy=0;" edge="1" parent="1" source="YAd4bqjU5zFwk5RfxE6E-64" target="YAd4bqjU5zFwk5RfxE6E-21">
          <mxGeometry width="50" height="50" relative="1" as="geometry">
            <mxPoint x="653.12" y="500" as="sourcePoint" />
            <mxPoint x="573.12" y="468" as="targetPoint" />
          </mxGeometry>
        </mxCell>
        <mxCell id="YAd4bqjU5zFwk5RfxE6E-67" value="extend" style="edgeLabel;html=1;align=center;verticalAlign=middle;resizable=0;points=[];fontSize=12;" vertex="1" connectable="0" parent="YAd4bqjU5zFwk5RfxE6E-66">
          <mxGeometry x="-0.0981" y="1" relative="1" as="geometry">
            <mxPoint as="offset" />
          </mxGeometry>
        </mxCell>
        <mxCell id="YAd4bqjU5zFwk5RfxE6E-75" value="Gestionnaire de jeu" style="ellipse;whiteSpace=wrap;html=1;" vertex="1" parent="1">
          <mxGeometry x="426" y="350" width="86" height="30" as="geometry" />
        </mxCell>
        <mxCell id="YAd4bqjU5zFwk5RfxE6E-76" value="" style="endArrow=classic;html=1;rounded=0;fontSize=12;startSize=8;endSize=8;curved=1;exitX=0.5;exitY=0;exitDx=0;exitDy=0;dashed=1;entryX=0.5;entryY=1;entryDx=0;entryDy=0;" edge="1" parent="1" source="YAd4bqjU5zFwk5RfxE6E-75" target="YAd4bqjU5zFwk5RfxE6E-10">
          <mxGeometry width="50" height="50" relative="1" as="geometry">
            <mxPoint x="470" y="344" as="sourcePoint" />
            <mxPoint x="546" y="310" as="targetPoint" />
          </mxGeometry>
        </mxCell>
        <mxCell id="YAd4bqjU5zFwk5RfxE6E-77" value="include" style="edgeLabel;html=1;align=center;verticalAlign=middle;resizable=0;points=[];fontSize=12;" vertex="1" connectable="0" parent="YAd4bqjU5zFwk5RfxE6E-76">
          <mxGeometry x="-0.0981" y="1" relative="1" as="geometry">
            <mxPoint as="offset" />
          </mxGeometry>
        </mxCell>
        <mxCell id="YAd4bqjU5zFwk5RfxE6E-78" value="" style="curved=1;endArrow=classic;html=1;rounded=0;fontSize=12;startSize=8;endSize=8;exitX=1;exitY=0.5;exitDx=0;exitDy=0;entryX=1;entryY=0.5;entryDx=0;entryDy=0;" edge="1" parent="1" source="YAd4bqjU5zFwk5RfxE6E-8" target="YAd4bqjU5zFwk5RfxE6E-75">
          <mxGeometry width="50" height="50" relative="1" as="geometry">
            <mxPoint x="570" y="320" as="sourcePoint" />
            <mxPoint x="520" y="370" as="targetPoint" />
            <Array as="points">
              <mxPoint x="600" y="260" />
              <mxPoint x="570" y="340" />
            </Array>
          </mxGeometry>
        </mxCell>
        <mxCell id="YAd4bqjU5zFwk5RfxE6E-83" style="edgeStyle=none;curved=1;rounded=0;orthogonalLoop=1;jettySize=auto;html=1;fontSize=12;startSize=8;endSize=8;entryX=0.5;entryY=1;entryDx=0;entryDy=0;dashed=1;" edge="1" parent="1" source="YAd4bqjU5zFwk5RfxE6E-82" target="YAd4bqjU5zFwk5RfxE6E-57">
          <mxGeometry relative="1" as="geometry" />
        </mxCell>
        <mxCell id="YAd4bqjU5zFwk5RfxE6E-84" value="Include" style="edgeLabel;html=1;align=center;verticalAlign=middle;resizable=0;points=[];fontSize=12;" vertex="1" connectable="0" parent="YAd4bqjU5zFwk5RfxE6E-83">
          <mxGeometry x="-0.1314" y="2" relative="1" as="geometry">
            <mxPoint as="offset" />
          </mxGeometry>
        </mxCell>
        <mxCell id="YAd4bqjU5zFwk5RfxE6E-82" value="Bateaux" style="ellipse;whiteSpace=wrap;html=1;" vertex="1" parent="1">
          <mxGeometry x="275.87" y="617.5" width="106.5" height="30" as="geometry" />
        </mxCell>
        <mxCell id="YAd4bqjU5zFwk5RfxE6E-86" style="edgeStyle=none;curved=1;rounded=0;orthogonalLoop=1;jettySize=auto;html=1;entryX=0.5;entryY=1;entryDx=0;entryDy=0;fontSize=12;startSize=8;endSize=8;dashed=1;" edge="1" parent="1" source="YAd4bqjU5zFwk5RfxE6E-85" target="YAd4bqjU5zFwk5RfxE6E-75">
          <mxGeometry relative="1" as="geometry" />
        </mxCell>
        <mxCell id="YAd4bqjU5zFwk5RfxE6E-85" value="Contrôleur de joueurs" style="ellipse;whiteSpace=wrap;html=1;" vertex="1" parent="1">
          <mxGeometry x="326" y="412.5" width="126.25" height="30" as="geometry" />
        </mxCell>
        <mxCell id="YAd4bqjU5zFwk5RfxE6E-87" value="IA" style="ellipse;whiteSpace=wrap;html=1;" vertex="1" parent="1">
          <mxGeometry x="210" y="390" width="70" height="22.5" as="geometry" />
        </mxCell>
        <mxCell id="YAd4bqjU5zFwk5RfxE6E-89" value="" style="endArrow=classic;html=1;rounded=0;fontSize=12;startSize=8;endSize=8;curved=1;dashed=1;entryX=0.017;entryY=0.241;entryDx=0;entryDy=0;entryPerimeter=0;exitX=1;exitY=0.5;exitDx=0;exitDy=0;" edge="1" parent="1" source="YAd4bqjU5zFwk5RfxE6E-87" target="YAd4bqjU5zFwk5RfxE6E-85">
          <mxGeometry width="50" height="50" relative="1" as="geometry">
            <mxPoint x="310" y="419" as="sourcePoint" />
            <mxPoint x="429.75" y="520" as="targetPoint" />
          </mxGeometry>
        </mxCell>
        <mxCell id="YAd4bqjU5zFwk5RfxE6E-90" value="extend" style="edgeLabel;html=1;align=center;verticalAlign=middle;resizable=0;points=[];fontSize=12;" vertex="1" connectable="0" parent="YAd4bqjU5zFwk5RfxE6E-89">
          <mxGeometry x="-0.0981" y="1" relative="1" as="geometry">
            <mxPoint x="-4" y="4" as="offset" />
          </mxGeometry>
        </mxCell>
        <mxCell id="YAd4bqjU5zFwk5RfxE6E-93" value="Joueur" style="ellipse;whiteSpace=wrap;html=1;" vertex="1" parent="1">
          <mxGeometry x="210" y="450" width="70" height="22.5" as="geometry" />
        </mxCell>
        <mxCell id="YAd4bqjU5zFwk5RfxE6E-94" value="" style="endArrow=classic;html=1;rounded=0;fontSize=12;startSize=8;endSize=8;curved=1;exitX=1;exitY=0.5;exitDx=0;exitDy=0;dashed=1;entryX=0.052;entryY=0.73;entryDx=0;entryDy=0;entryPerimeter=0;" edge="1" parent="1" source="YAd4bqjU5zFwk5RfxE6E-93" target="YAd4bqjU5zFwk5RfxE6E-85">
          <mxGeometry width="50" height="50" relative="1" as="geometry">
            <mxPoint x="596.25" y="552.5" as="sourcePoint" />
            <mxPoint x="604.25" y="512.5" as="targetPoint" />
          </mxGeometry>
        </mxCell>
        <mxCell id="YAd4bqjU5zFwk5RfxE6E-95" value="extend" style="edgeLabel;html=1;align=center;verticalAlign=middle;resizable=0;points=[];fontSize=12;" vertex="1" connectable="0" parent="YAd4bqjU5zFwk5RfxE6E-94">
          <mxGeometry x="-0.0981" y="1" relative="1" as="geometry">
            <mxPoint as="offset" />
          </mxGeometry>
        </mxCell>
        <mxCell id="YAd4bqjU5zFwk5RfxE6E-97" value="" style="endArrow=classic;html=1;rounded=0;fontSize=12;startSize=8;endSize=8;curved=1;exitX=0.5;exitY=0;exitDx=0;exitDy=0;dashed=1;entryX=0.5;entryY=1;entryDx=0;entryDy=0;" edge="1" parent="1" source="YAd4bqjU5zFwk5RfxE6E-57" target="YAd4bqjU5zFwk5RfxE6E-21">
          <mxGeometry width="50" height="50" relative="1" as="geometry">
            <mxPoint x="369" y="568" as="sourcePoint" />
            <mxPoint x="429" y="535" as="targetPoint" />
          </mxGeometry>
        </mxCell>
        <mxCell id="YAd4bqjU5zFwk5RfxE6E-98" value="extend" style="edgeLabel;html=1;align=center;verticalAlign=middle;resizable=0;points=[];fontSize=12;" vertex="1" connectable="0" parent="YAd4bqjU5zFwk5RfxE6E-97">
          <mxGeometry x="-0.0981" y="1" relative="1" as="geometry">
            <mxPoint as="offset" />
          </mxGeometry>
        </mxCell>
      </root>
    </mxGraphModel>
  </diagram>
</mxfile>
